<?xml version="1.0" encoding="utf-8"?>
<!-- Generator: Adobe Illustrator 26.5.0, SVG Export Plug-In . SVG Version: 6.00 Build 0)  -->
<svg version="1.1" id="Layer_1" xmlns="http://www.w3.org/2000/svg" xmlns:xlink="http://www.w3.org/1999/xlink" x="0px" y="0px"
	 viewBox="0 0 512 512" style="enable-background:new 0 0 512 512;" xml:space="preserve">
<style type="text/css">
	.st0{fill:#3D5A98;}
	.st1{fill:#FFFFFF;}
</style>
<g id="XMLID_1_">
	<path id="Blue_1_" class="st0" d="M483.71,512c15.63,0,28.29-12.67,28.29-28.29V28.29C512,12.67,499.33,0,483.71,0H28.29
		C12.67,0,0,12.67,0,28.29v455.41C0,499.33,12.67,512,28.29,512H483.71z"/>
	<path id="f" class="st1" d="M353.28,512V313.67h66.56l9.97-77.2h-76.53v-49.31c0-22.37,6.2-37.59,38.27-37.59h40.96V80.44
		c-7.14-0.94-31.39-3.1-59.69-3.1c-59.01,0-99.44,35.97-99.44,102.13v56.99h-66.69v77.2h66.83V512H353.28z"/>
</g>
</svg>
